<svg xmlns="http://www.w3.org/2000/svg" viewBox="0 0 48 48" width="24" height="24"><path d="M7.705 4.043C7.292 4.15 7 4.507 7 5.121v37.97c0 .446.197.745.5.856l20.181-20.064L7.705 4.043z" fill="#4db6ac"/><path d="M33.237 18.36l-8.307-4.796-16.141-9.32c-.388-.224-.77-.283-1.084-.201l19.977 19.84 5.555-5.523z" fill="#dce775"/><path d="M8.417 43.802l24.865-14.357-5.601-5.562L7.5 43.947c.248.091.566.057.917-.145z" fill="#d32f2f"/><path d="M41.398 23.071c-.796-.429-8.1-4.676-8.1-4.676l-.061-.035-5.556 5.523 5.601 5.562 8.059-4.653c.944-.544.853-1.292.057-1.721z" fill="#fbc02d"/></svg>